# xmcd
#
# Track frame offsets:
#	150
#	11467
#	23490
#	37200
#	50567
#	64885
#	76815
#	88765
#
# Disc length: 1368 seconds
#
# Revision: 0
# Processed by: cddbd v1.4PL0 Copyright (c) Steve Scherf et al.
# Submitted via: dBpowerAMP V4.0
#
DISCID=5c055608
DTITLE=Conway Twitty - Hello Darlin
DYEAR=1900
DGENRE=Country
TTITLE0=Hello Darlin'
TTITLE1=Linda on My Mind
TTITLE2=The Games that Daddies Play
TTITLE3=After All the Good is Gone
TTITLE4=You've never been this Far before
TTITLE5=I'm not through Loving you yet
TTITLE6=I Can't See Me Without You
TTITLE7=Fifteen Years Ago
EXTD=
EXTT0=
EXTT1=
EXTT2=
EXTT3=
EXTT4=
EXTT5=
EXTT6=
EXTT7=
PLAYORDER=
